<svg width="158" height="32" viewBox="0 0 158 32" fill="none" xmlns="http://www.w3.org/2000/svg">
<path d="M42 28.4979V25.2507L51.6136 13.3487V13.2081H42.3324V8.86151H58.1719V12.4027L49.1463 24.0107V24.1513H58.5043V28.4979H42Z" fill="currentColor"/>
<path d="M69.975 28.8814C67.9552 28.8814 66.2165 28.4723 64.7591 27.6541C63.3103 26.8274 62.1938 25.6598 61.4097 24.1513C60.6256 22.6342 60.2336 20.8402 60.2336 18.7692C60.2336 16.7493 60.6256 14.9766 61.4097 13.451C62.1938 11.9254 63.2975 10.7365 64.7208 9.88423C66.1526 9.03196 67.8316 8.60583 69.7577 8.60583C71.0532 8.60583 72.2591 8.81463 73.3756 9.23225C74.5006 9.64134 75.4807 10.2592 76.316 11.0859C77.1597 11.9126 77.816 12.9524 78.2847 14.2053C78.7535 15.4496 78.9878 16.907 78.9878 18.5774V20.0732H65.6157V16.6982H73.8614C73.8614 15.9141 73.691 15.2195 73.35 14.6143C73.0091 14.0092 72.5361 13.5362 71.931 13.1953C71.3344 12.8459 70.6398 12.6712 69.8472 12.6712C69.0205 12.6712 68.2875 12.8629 67.6483 13.2464C67.0177 13.6214 66.5233 14.1286 66.1654 14.7678C65.8074 15.3984 65.6242 16.1016 65.6157 16.8771V20.0859C65.6157 21.0575 65.7946 21.897 66.1526 22.6044C66.5191 23.3118 67.0347 23.8572 67.6995 24.2408C68.3642 24.6243 69.1526 24.8161 70.0645 24.8161C70.6696 24.8161 71.2236 24.7308 71.7265 24.5604C72.2293 24.3899 72.6597 24.1342 73.0177 23.7933C73.3756 23.4524 73.6483 23.0348 73.8358 22.5405L78.8728 22.8729C78.6171 24.0831 78.0929 25.1399 77.3003 26.0433C76.5162 26.9382 75.502 27.6371 74.2577 28.1399C73.0219 28.6342 71.5944 28.8814 69.975 28.8814Z" fill="currentColor"/>
<path d="M86.9078 17.1456V28.4979H81.4618V8.86151H86.6521V12.326H86.8823C87.3169 11.1839 88.0456 10.2805 89.0683 9.61577C90.0911 8.94247 91.3311 8.60583 92.7885 8.60583C94.1521 8.60583 95.3411 8.90412 96.3553 9.50071C97.3695 10.0973 98.1578 10.9496 98.7203 12.0575C99.2828 13.157 99.5641 14.4695 99.5641 15.995V28.4979H94.1181V16.9666C94.1266 15.7649 93.8198 14.8274 93.1976 14.1541C92.5754 13.4723 91.7189 13.1314 90.628 13.1314C89.895 13.1314 89.2473 13.2891 88.6848 13.6044C88.1308 13.9197 87.6962 14.38 87.3808 14.9851C87.074 15.5817 86.9163 16.3018 86.9078 17.1456Z" fill="currentColor"/>
<path d="M106.65 28.4979L101.306 8.86151H106.816L109.859 22.0547H110.038L113.208 8.86151H118.616L121.837 21.978H122.004L124.995 8.86151H130.492L125.161 28.4979H119.396L116.021 16.1484H115.778L112.403 28.4979H106.65Z" fill="currentColor"/>
<path d="M140.774 28.8814C138.754 28.8814 137.016 28.4723 135.558 27.6541C134.109 26.8274 132.993 25.6598 132.209 24.1513C131.425 22.6342 131.033 20.8402 131.033 18.7692C131.033 16.7493 131.425 14.9766 132.209 13.451C132.993 11.9254 134.097 10.7365 135.52 9.88423C136.952 9.03196 138.631 8.60583 140.557 8.60583C141.852 8.60583 143.058 8.81463 144.175 9.23225C145.3 9.64134 146.28 10.2592 147.115 11.0859C147.959 11.9126 148.615 12.9524 149.084 14.2053C149.553 15.4496 149.787 16.907 149.787 18.5774V20.0732H136.415V16.6982H144.66C144.66 15.9141 144.49 15.2195 144.149 14.6143C143.808 14.0092 143.335 13.5362 142.73 13.1953C142.133 12.8459 141.439 12.6712 140.646 12.6712C139.82 12.6712 139.087 12.8629 138.447 13.2464C137.817 13.6214 137.322 14.1286 136.964 14.7678C136.606 15.3984 136.423 16.1016 136.415 16.8771V20.0859C136.415 21.0575 136.594 21.897 136.952 22.6044C137.318 23.3118 137.834 23.8572 138.499 24.2408C139.163 24.6243 139.952 24.8161 140.864 24.8161C141.469 24.8161 142.023 24.7308 142.526 24.5604C143.028 24.3899 143.459 24.1342 143.817 23.7933C144.175 23.4524 144.447 23.0348 144.635 22.5405L149.672 22.8729C149.416 24.0831 148.892 25.1399 148.099 26.0433C147.315 26.9382 146.301 27.6371 145.057 28.1399C143.821 28.6342 142.393 28.8814 140.774 28.8814Z" fill="currentColor"/>
<path d="M152.261 28.4979V8.86151H157.707V28.4979H152.261Z" fill="currentColor"/>
<path d="M157.93 3.5C157.93 5.15685 156.587 6.5 154.93 6.5C153.273 6.5 151.93 5.15685 151.93 3.5C151.93 1.84315 153.273 0.5 154.93 0.5C156.587 0.5 157.93 1.84315 157.93 3.5Z" fill="#E13C3C"/>
<path d="M6.2069 15.5H0L7.3992e-07 2.5H30C29.9566 2.95142 29.9002 3.40284 29.8307 3.84648C29.7569 4.34461 29.566 5.32528 29.566 5.32528C29.566 5.32528 29.2622 6.62507 29.0712 7.26329C25.7075 18.5177 14.579 27.6473 7.3992e-07 31.5V25.5C10.9679 22.1143 19.0139 16.5 21.7241 7.5H6.20689L6.2069 15.5Z" fill="#E13C3C"/>
<path d="M14.4828 25.109H30L30 31.5H14.4828L14.4828 25.109Z" fill="#E13C3C"/>
</svg>
