<svg viewBox="0 0 22 24" fill="none" xmlns="http://www.w3.org/2000/svg">
<path d="M11.0022 6.87225C8.16453 6.87225 5.87563 9.16166 5.87563 12C5.87563 14.8383 8.16453 17.1277 11.0022 17.1277C13.8399 17.1277 16.1288 14.8383 16.1288 12C16.1288 9.16166 13.8399 6.87225 11.0022 6.87225ZM11.0022 15.3337C9.16843 15.3337 7.66927 13.8387 7.66927 12C7.66927 10.1613 9.16397 8.6663 11.0022 8.6663C12.8405 8.6663 14.3352 10.1613 14.3352 12C14.3352 13.8387 12.836 15.3337 11.0022 15.3337ZM17.5343 6.6625C17.5343 7.32746 16.9989 7.85853 16.3385 7.85853C15.6737 7.85853 15.1428 7.32299 15.1428 6.6625C15.1428 6.00201 15.6782 5.46647 16.3385 5.46647C16.9989 5.46647 17.5343 6.00201 17.5343 6.6625ZM20.9297 7.87638C20.8539 6.27424 20.488 4.85507 19.3146 3.68582C18.1456 2.51657 16.7267 2.15062 15.1249 2.07029C13.4741 1.97657 8.52593 1.97657 6.87507 2.07029C5.27775 2.14616 3.8589 2.51211 2.68544 3.68136C1.51199 4.85061 1.15059 6.26978 1.07027 7.87192C0.976576 9.52315 0.976576 14.4724 1.07027 16.1236C1.14612 17.7258 1.51199 19.1449 2.68544 20.3142C3.8589 21.4834 5.27328 21.8494 6.87507 21.9297C8.52593 22.0234 13.4741 22.0234 15.1249 21.9297C16.7267 21.8538 18.1456 21.4879 19.3146 20.3142C20.4835 19.1449 20.8494 17.7258 20.9297 16.1236C21.0234 14.4724 21.0234 9.52761 20.9297 7.87638ZM18.797 17.8953C18.449 18.7701 17.7752 19.4439 16.8963 19.7965C15.58 20.3186 12.4568 20.1981 11.0022 20.1981C9.54769 20.1981 6.41997 20.3142 5.1082 19.7965C4.23369 19.4484 3.55996 18.7745 3.20747 17.8953C2.68544 16.5788 2.80591 13.4549 2.80591 12C2.80591 10.5451 2.68991 7.41671 3.20747 6.10465C3.55549 5.22995 4.22922 4.55606 5.1082 4.2035C6.42443 3.68136 9.54769 3.80185 11.0022 3.80185C12.4568 3.80185 15.5845 3.68582 16.8963 4.2035C17.7708 4.5516 18.4445 5.22548 18.797 6.10465C19.319 7.42118 19.1985 10.5451 19.1985 12C19.1985 13.4549 19.319 16.5833 18.797 17.8953Z" fill="currentColor"/>
</svg>
